<svg xmlns="http://www.w3.org/2000/svg" width="32" height="32" viewBox="0 0 32 32" aria-hidden="true">
  <circle cx="16" cy="16" r="14" fill="#d9a24a" stroke="#a8742a" stroke-width="1"/>
  <circle cx="16" cy="16" r="5.5" fill="#fff6ee"/>
  <ellipse cx="10" cy="11" rx="1.3" ry="0.65" fill="#f8edd8" transform="rotate(-25 10 11)"/>
  <ellipse cx="14" cy="8.5" rx="1.3" ry="0.65" fill="#f8edd8" transform="rotate(10 14 8.5)"/>
  <ellipse cx="20" cy="9.5" rx="1.3" ry="0.65" fill="#f8edd8" transform="rotate(35 20 9.5)"/>
  <ellipse cx="23" cy="14" rx="1.3" ry="0.65" fill="#f8edd8" transform="rotate(55 23 14)"/>
  <ellipse cx="22" cy="20" rx="1.3" ry="0.65" fill="#f8edd8" transform="rotate(80 22 20)"/>
  <ellipse cx="17" cy="23.5" rx="1.3" ry="0.65" fill="#f8edd8" transform="rotate(105 17 23.5)"/>
  <ellipse cx="11" cy="22" rx="1.3" ry="0.65" fill="#f8edd8" transform="rotate(-70 11 22)"/>
  <ellipse cx="8" cy="16" rx="1.3" ry="0.65" fill="#f8edd8" transform="rotate(-40 8 16)"/>
</svg>
